<svg aria-hidden="true" style="position: absolute; width: 0; height: 0; overflow: hidden;" version="1.1" xmlns="http://www.w3.org/2000/svg" xmlns:xlink="http://www.w3.org/1999/xlink">
<defs>
<symbol id="icon-mail-modal" viewBox="0 0 43 32">
<path d="M37.333 0h-32c-2.2 0-3.98 1.8-3.98 4l-0.020 24c0 2.2 1.8 4 4 4h32c2.2 0 4-1.8 4-4v-24c0-2.2-1.8-4-4-4zM36.533 8.5l-14.14 8.84c-0.64 0.4-1.48 0.4-2.12 0l-14.14-8.84c-0.5-0.32-0.8-0.86-0.8-1.44 0-1.34 1.46-2.14 2.6-1.44l13.4 8.38 13.4-8.38c1.14-0.7 2.6 0.1 2.6 1.44 0 0.58-0.3 1.12-0.8 1.44z"></path>
</symbol>
<symbol id="icon-telephone-modal" viewBox="0 0 32 32">
<path d="M27.419 20.852l-4.201-0.48c-1.009-0.116-2.002 0.232-2.713 0.943l-3.044 3.044c-4.681-2.382-8.519-6.203-10.901-10.901l3.060-3.060c0.711-0.711 1.059-1.704 0.943-2.713l-0.48-4.168c-0.198-1.671-1.604-2.928-3.292-2.928h-2.862c-1.869 0-3.424 1.555-3.308 3.424 0.877 14.126 12.174 25.407 26.284 26.284 1.869 0.116 3.424-1.439 3.424-3.308v-2.861c0.016-1.671-1.241-3.077-2.911-3.275z"></path>
</symbol>
<symbol id="icon-person-modal" viewBox="0 0 32 32">
<path d="M16 16c4.42 0 8-3.58 8-8s-3.58-8-8-8c-4.42 0-8 3.58-8 8s3.58 8 8 8zM16 20c-5.34 0-16 2.68-16 8v2c0 1.1 0.9 2 2 2h28c1.1 0 2-0.9 2-2v-2c0-5.32-10.66-8-16-8z"></path>
</symbol>
<symbol id="icon-telegram" viewBox="0 0 32 32">
<path fill="#fff" style="fill: var(--color1, #fff)" d="M32 0l-32 18 10.227 3.788 15.773-14.788-11.998 16.186 0.010 0.004-0.012-0.004v8.814l5.735-6.691 7.265 2.691 5-28z"></path>
</symbol>
<symbol id="icon-linkedin" viewBox="0 0 32 32">
<path fill="" style="" d="M31.992 32v-0.001h0.008v-11.736c0-5.741-1.236-10.164-7.948-10.164-3.227 0-5.392 1.771-6.276 3.449h-0.093v-2.913h-6.364v21.364h6.627v-10.579c0-2.785 0.528-5.479 3.977-5.479 3.399 0 3.449 3.179 3.449 5.657v10.401h6.62z"></path>
<path fill="" style="" d="M0.528 10.636h6.635v21.364h-6.635v-21.364z"></path>
<path fill="" style="" d="M3.843 0c-2.121 0-3.843 1.721-3.843 3.843s1.721 3.879 3.843 3.879c2.121 0 3.843-1.757 3.843-3.879-0.001-2.121-1.723-3.843-3.843-3.843v0z"></path>
</symbol>
<symbol id="icon-instagram" viewBox="0 0 32 32">
<path fill="" style="" d="M31.969 9.408c-0.075-1.7-0.35-2.869-0.744-3.882-0.406-1.075-1.032-2.038-1.851-2.838-0.8-0.813-1.769-1.444-2.832-1.844-1.019-0.394-2.182-0.669-3.882-0.744-1.713-0.081-2.257-0.1-6.601-0.1s-4.888 0.019-6.595 0.094c-1.7 0.075-2.869 0.35-3.882 0.744-1.075 0.406-2.038 1.031-2.838 1.85-0.813 0.8-1.444 1.769-1.844 2.832-0.394 1.019-0.669 2.182-0.744 3.882-0.081 1.713-0.1 2.257-0.1 6.601s0.019 4.888 0.094 6.595c0.075 1.7 0.35 2.869 0.744 3.882 0.406 1.075 1.038 2.038 1.85 2.838 0.8 0.813 1.769 1.444 2.832 1.844 1.019 0.394 2.182 0.669 3.882 0.744 1.706 0.075 2.25 0.094 6.595 0.094s4.888-0.019 6.595-0.094c1.7-0.075 2.869-0.35 3.882-0.744 2.151-0.832 3.851-2.532 4.682-4.682 0.394-1.019 0.669-2.182 0.744-3.882 0.075-1.707 0.094-2.251 0.094-6.595s-0.006-4.888-0.081-6.595zM29.087 22.473c-0.069 1.563-0.331 2.407-0.55 2.969-0.538 1.394-1.644 2.5-3.038 3.038-0.563 0.219-1.413 0.481-2.969 0.55-1.688 0.075-2.194 0.094-6.464 0.094s-4.782-0.019-6.464-0.094c-1.563-0.069-2.407-0.331-2.969-0.55-0.694-0.256-1.325-0.663-1.838-1.194-0.531-0.519-0.938-1.144-1.194-1.838-0.219-0.563-0.481-1.413-0.55-2.969-0.075-1.688-0.094-2.194-0.094-6.464s0.019-4.782 0.094-6.464c0.069-1.563 0.331-2.407 0.55-2.969 0.256-0.694 0.663-1.325 1.2-1.838 0.519-0.531 1.144-0.938 1.838-1.194 0.563-0.219 1.413-0.481 2.969-0.55 1.688-0.075 2.194-0.094 6.464-0.094 4.276 0 4.782 0.019 6.464 0.094 1.563 0.069 2.407 0.331 2.969 0.55 0.694 0.256 1.325 0.662 1.838 1.194 0.531 0.519 0.938 1.144 1.194 1.838 0.219 0.563 0.481 1.413 0.55 2.969 0.075 1.688 0.094 2.194 0.094 6.464s-0.019 4.77-0.094 6.458z"></path>
<path fill="" style="" d="M16.059 7.783c-4.538 0-8.22 3.682-8.22 8.22s3.682 8.22 8.22 8.22c4.539 0 8.22-3.682 8.22-8.22s-3.682-8.22-8.22-8.22zM16.059 21.335c-2.944 0-5.332-2.388-5.332-5.332s2.388-5.332 5.332-5.332c2.944 0 5.332 2.388 5.332 5.332s-2.388 5.332-5.332 5.332z"></path>
<path fill="" style="" d="M26.524 7.458c0 1.060-0.859 1.919-1.919 1.919s-1.919-0.859-1.919-1.919c0-1.060 0.859-1.919 1.919-1.919s1.919 0.859 1.919 1.919z"></path>
</symbol>
<symbol id="icon-twitter" viewBox="0 0 36 32">
<path fill="" style="" d="M35.556 4.976c-1.322 0.58-2.731 0.964-4.2 1.151 1.511-0.902 2.665-2.32 3.207-4.029-1.409 0.84-2.964 1.433-4.622 1.764-1.338-1.424-3.244-2.307-5.324-2.307-4.035 0-7.284 3.276-7.284 7.291 0 0.578 0.049 1.133 0.169 1.662-6.060-0.296-11.422-3.2-15.024-7.624-0.629 1.091-0.998 2.34-0.998 3.684 0 2.524 1.3 4.762 3.238 6.058-1.171-0.022-2.32-0.362-3.293-0.898 0 0.022 0 0.051 0 0.080 0 3.542 2.527 6.484 5.84 7.162-0.593 0.162-1.24 0.24-1.911 0.24-0.467 0-0.938-0.026-1.38-0.124 0.944 2.887 3.624 5.009 6.811 5.078-2.48 1.94-5.629 3.109-9.038 3.109-0.598 0-1.171-0.026-1.744-0.1 3.229 2.082 7.056 3.271 11.182 3.271 13.413 0 20.747-11.111 20.747-20.742 0-0.322-0.011-0.633-0.027-0.942 1.447-1.027 2.662-2.309 3.653-3.784z"></path>
</symbol>
<symbol id="icon-facebook" viewBox="0 0 32 32">
<path fill="" style="" d="M21.329 5.313h2.921v-5.088c-0.504-0.069-2.237-0.225-4.256-0.225-4.212 0-7.097 2.649-7.097 7.519v4.481h-4.648v5.688h4.648v14.312h5.699v-14.311h4.46l0.708-5.688h-5.169v-3.919c0.001-1.644 0.444-2.769 2.735-2.769z"></path>
</symbol>
<symbol id="icon-e-mail" viewBox="0 0 43 32">
<path fill="" style="" d="M38.667 0h-34.667c-2.206 0-4 1.794-4 4v24c0 2.206 1.794 4 4 4h34.667c2.206 0 4-1.794 4-4v-24c0-2.206-1.794-4-4-4zM38.667 2.667c0.181 0 0.353 0.038 0.511 0.103l-17.844 15.466-17.844-15.466c0.158-0.066 0.33-0.103 0.511-0.103h34.667zM38.667 29.333h-34.667c-0.736 0-1.333-0.598-1.333-1.333v-22.413l17.793 15.421c0.251 0.217 0.563 0.326 0.874 0.326s0.622-0.108 0.874-0.326l17.793-15.421v22.413c0 0.736-0.598 1.333-1.333 1.333z"></path>
</symbol>
<symbol id="icon-call" viewBox="0 0 20 32">
<path fill="" style="" d="M17 0h-14c-1.654 0-3 1.346-3 3v26c0 1.654 1.346 3 3 3h14c1.654 0 3-1.346 3-3v-26c0-1.654-1.346-3-3-3zM3 2h14c0.552 0 1 0.448 1 1v21h-16v-21c0-0.552 0.448-1 1-1zM17 30h-14c-0.552 0-1-0.448-1-1v-3h16v3c0 0.552-0.448 1-1 1z"></path>
</symbol>
<symbol id="icon-YA-CO" viewBox="0 0 57 32">
<path fill="" style="" d="M20.267 3.733l3.738 3.538-6.938-0.004v17.166h18.133v-6.564l3.733 3.534v-17.671h-18.667zM35.036 17.455l-10.597-10.032h10.597v10.032zM31.746 21.923h-11.81v-11.545h0.835v10.764h10.975v0.782zM22.725 26.72l-0.436 0.898-0.436-0.898h-0.366l0.637 1.198v0.698h0.331v-0.698l0.635-1.198h-0.365zM23.273 28.615l0.154-0.441h0.734l0.155 0.441h0.344l-0.717-1.896h-0.296l-0.716 1.896h0.342zM23.794 27.122l0.275 0.786h-0.549l0.275-0.786zM25.531 27.863c-0.048 0.073-0.072 0.153-0.072 0.241 0 0.16 0.056 0.29 0.168 0.389s0.263 0.148 0.451 0.148 0.349-0.051 0.484-0.152l0.107 0.126h0.367l-0.279-0.329c0.109-0.149 0.164-0.341 0.164-0.574h-0.275c0 0.128-0.026 0.243-0.079 0.348l-0.366-0.432 0.129-0.094c0.091-0.066 0.157-0.132 0.197-0.198s0.060-0.14 0.060-0.219c0-0.12-0.044-0.22-0.133-0.301s-0.201-0.122-0.339-0.122c-0.153 0-0.274 0.043-0.365 0.13s-0.135 0.203-0.135 0.352c0 0.061 0.014 0.124 0.043 0.189s0.081 0.144 0.155 0.237c-0.141 0.101-0.235 0.188-0.283 0.262zM26.386 28.282c-0.093 0.071-0.193 0.107-0.299 0.107-0.095 0-0.17-0.027-0.227-0.082s-0.085-0.126-0.085-0.214c0-0.102 0.052-0.192 0.156-0.271l0.040-0.029 0.414 0.488zM26.046 27.442c-0.089-0.11-0.134-0.202-0.134-0.275 0-0.063 0.018-0.116 0.055-0.158s0.085-0.063 0.147-0.063c0.057 0 0.105 0.018 0.142 0.053s0.056 0.077 0.056 0.126c0 0.075-0.027 0.136-0.081 0.184l-0.040 0.033-0.145 0.099zM29.132 28.472c0.13-0.114 0.205-0.272 0.224-0.474h-0.328c-0.017 0.135-0.059 0.232-0.124 0.29s-0.162 0.087-0.292 0.087c-0.142 0-0.249-0.054-0.323-0.161s-0.109-0.264-0.109-0.469v-0.168c0.002-0.202 0.041-0.355 0.117-0.46s0.188-0.158 0.331-0.158c0.123 0 0.217 0.030 0.28 0.091s0.104 0.158 0.12 0.294h0.328c-0.021-0.207-0.095-0.368-0.223-0.482s-0.296-0.171-0.505-0.171c-0.155 0-0.293 0.037-0.411 0.111s-0.209 0.179-0.272 0.315c-0.063 0.136-0.095 0.294-0.095 0.473v0.177c0.003 0.174 0.035 0.328 0.098 0.46s0.151 0.234 0.266 0.306c0.115 0.071 0.249 0.107 0.4 0.107 0.216 0 0.389-0.056 0.52-0.169zM31.068 28.206c0.064-0.141 0.096-0.304 0.096-0.49v-0.105c-0.001-0.185-0.034-0.347-0.099-0.486s-0.158-0.247-0.277-0.32c-0.119-0.075-0.256-0.112-0.41-0.112s-0.292 0.038-0.411 0.113c-0.119 0.075-0.211 0.183-0.277 0.324s-0.098 0.305-0.098 0.49v0.107c0.001 0.181 0.034 0.342 0.099 0.48s0.159 0.246 0.279 0.322c0.121 0.075 0.258 0.112 0.411 0.112 0.155 0 0.293-0.037 0.411-0.112s0.212-0.183 0.276-0.323zM30.716 27.135c0.080 0.112 0.12 0.273 0.12 0.483v0.099c0 0.214-0.040 0.376-0.119 0.487s-0.19 0.167-0.336 0.167c-0.144 0-0.257-0.057-0.339-0.171s-0.121-0.275-0.121-0.483v-0.109c0.002-0.204 0.043-0.362 0.122-0.473s0.192-0.168 0.335-0.168c0.146 0 0.258 0.056 0.337 0.168z"></path>
</symbol>
<symbol id="icon-COMPANY-tagline" viewBox="0 0 57 32">
<path fill="" style="" d="M26.727 3.165h-0.073c-0.112-0.007-0.224-0.010-0.336-0.012v0h-0.243c-0.212 0-0.428 0.005-0.642 0.016-0.016-0.001-0.032-0.001-0.049 0-1.944 0.11-3.848 0.596-5.609 1.431l-0.231 0.111v11.809l0.54-0.183c0.474-0.163 0.978-0.309 1.5-0.445 1.411-0.362 2.861-0.555 4.317-0.574v1.551c-0.193 0.001-0.38 0.007-0.568 0.016h-0.045c-1.121 0.061-2.233 0.232-3.322 0.51-1.378 0.345-2.708 0.863-3.957 1.542v-15.145c1.298-0.757 2.695-1.325 4.151-1.688 1.278-0.33 2.593-0.5 3.913-0.504h0.228c0.273 0.007 0.538 0.019 0.788 0.038 0.658 0.046 1.31 0.15 1.95 0.311v1.527c-0.621-0.145-1.253-0.24-1.889-0.285-0.013-0.001-0.026-0.002-0.039-0.003-0.132-0.011-0.263-0.022-0.386-0.022zM29.415 4.726c0.339 0.026 0.689 0.038 1.044 0.038 1.388-0.005 2.769-0.182 4.114-0.528 1.378-0.346 2.706-0.865 3.956-1.543v14.875c-1.298 0.756-2.696 1.325-4.153 1.688-1.279 0.329-2.593 0.498-3.913 0.503-1 0.008-1.997-0.11-2.968-0.35v-14.971c0.229 0.053 0.465 0.102 0.706 0.142 0.394 0.066 0.81 0.115 1.214 0.145zM36.985 4.841l-0.54 0.182c-0.497 0.167-0.997 0.316-1.5 0.449-1.465 0.377-2.971 0.57-4.483 0.575-0.352 0-0.676-0.010-0.989-0.030l-0.43-0.028v12.148l0.37 0.033c0.343 0.030 0.696 0.045 1.052 0.045 1.191-0.005 2.377-0.159 3.531-0.457 0.95-0.238 1.874-0.57 2.759-0.991l0.231-0.111v-11.813z"></path>
<path fill="" style="" d="M19.060 24.113c-0.078-0.080-0.171-0.144-0.274-0.186s-0.214-0.061-0.326-0.057c-0.119-0.002-0.237 0.021-0.347 0.065-0.101 0.040-0.193 0.101-0.27 0.178s-0.135 0.17-0.174 0.271c-0.042 0.107-0.063 0.22-0.062 0.335v2.023c-0.005 0.143 0.022 0.284 0.080 0.415 0.048 0.104 0.117 0.196 0.202 0.271 0.081 0.068 0.176 0.117 0.278 0.144 0.098 0.028 0.2 0.042 0.302 0.042 0.113 0.001 0.224-0.023 0.326-0.070 0.101-0.044 0.193-0.108 0.27-0.187 0.075-0.079 0.135-0.171 0.177-0.271 0.043-0.102 0.065-0.212 0.065-0.323v-0.226h-0.529v0.18c0.002 0.062-0.009 0.123-0.031 0.18-0.017 0.043-0.043 0.082-0.077 0.114-0.033 0.026-0.070 0.046-0.111 0.058-0.036 0.012-0.073 0.018-0.111 0.019-0.047 0.006-0.095-0.002-0.139-0.021s-0.081-0.049-0.11-0.088c-0.050-0.081-0.074-0.176-0.070-0.271v-1.887c-0.003-0.105 0.019-0.208 0.065-0.302 0.027-0.043 0.066-0.077 0.112-0.098s0.097-0.030 0.147-0.024c0.046-0.002 0.091 0.008 0.132 0.028s0.077 0.049 0.104 0.086c0.059 0.078 0.090 0.173 0.088 0.271v0.175h0.524v-0.206c0.001-0.121-0.021-0.241-0.065-0.354-0.039-0.106-0.099-0.203-0.177-0.285z"></path>
<path fill="" style="" d="M22.202 24.090c-0.169-0.142-0.381-0.221-0.602-0.222-0.108 0-0.215 0.020-0.316 0.057-0.103 0.037-0.198 0.093-0.279 0.165-0.088 0.079-0.158 0.175-0.205 0.283-0.053 0.124-0.079 0.257-0.077 0.392v1.941c-0.004 0.137 0.023 0.272 0.077 0.397 0.048 0.104 0.118 0.197 0.205 0.271 0.081 0.075 0.176 0.133 0.279 0.171 0.101 0.037 0.208 0.056 0.316 0.057s0.215-0.020 0.316-0.057c0.105-0.038 0.202-0.096 0.286-0.171 0.084-0.076 0.152-0.168 0.2-0.271 0.054-0.125 0.081-0.261 0.077-0.397v-1.941c0.003-0.135-0.024-0.268-0.077-0.392-0.047-0.107-0.115-0.203-0.2-0.283zM21.955 26.706c0.004 0.052-0.003 0.104-0.021 0.152s-0.047 0.092-0.084 0.128c-0.070 0.059-0.158 0.091-0.249 0.091s-0.179-0.032-0.249-0.091c-0.037-0.036-0.066-0.080-0.084-0.128s-0.025-0.101-0.021-0.152v-1.941c-0.004-0.052 0.003-0.104 0.021-0.152s0.047-0.092 0.084-0.128c0.070-0.059 0.158-0.091 0.249-0.091s0.179 0.032 0.249 0.091c0.037 0.036 0.066 0.080 0.084 0.128s0.025 0.101 0.021 0.152v1.941z"></path>
<path fill="" style="" d="M26.329 27.573v-3.674h-0.509l-0.668 1.945h-0.009l-0.673-1.945h-0.503v3.674h0.525v-2.235h0.009l0.514 1.58h0.262l0.518-1.58h0.009v2.235h0.525z"></path>
<path fill="" style="" d="M29.311 24.157c-0.081-0.091-0.183-0.16-0.297-0.201-0.123-0.040-0.251-0.059-0.38-0.057h-0.78v3.674h0.523v-1.435h0.27c0.163 0.007 0.326-0.027 0.472-0.1 0.119-0.066 0.218-0.163 0.287-0.281 0.061-0.098 0.101-0.206 0.12-0.32 0.021-0.138 0.030-0.278 0.028-0.418 0.005-0.176-0.012-0.353-0.051-0.525-0.035-0.127-0.101-0.243-0.193-0.338zM29.041 25.277c-0.002 0.067-0.019 0.132-0.049 0.191-0.030 0.056-0.077 0.102-0.135 0.129-0.078 0.035-0.162 0.050-0.247 0.046h-0.239v-1.249h0.27c0.081-0.004 0.162 0.012 0.236 0.046 0.054 0.031 0.097 0.079 0.123 0.136 0.029 0.065 0.044 0.134 0.046 0.205 0 0.077 0 0.159 0 0.244s0.005 0.174 0 0.252h-0.005z"></path>
<path fill="" style="" d="M31.791 23.899h-0.429l-0.809 3.674h0.523l0.154-0.789h0.714l0.154 0.789h0.524l-0.83-3.674zM31.308 26.283l0.258-1.332h0.009l0.256 1.332h-0.524z"></path>
<path fill="" style="" d="M35.173 26.112h-0.009l-0.791-2.213h-0.503v3.674h0.523v-2.209h0.011l0.8 2.209h0.492v-3.674h-0.523v2.213z"></path>
<path fill="" style="" d="M38.372 23.899l-0.421 1.461h-0.011l-0.421-1.461h-0.554l0.719 2.121v1.553h0.524v-1.553l0.719-2.121h-0.554z"></path>
<path fill="" style="" d="M17.6 28.61h0.252v0.708h0.171v-0.708h0.251v-0.145h-0.675v0.145z"></path>
<path fill="" style="" d="M19.721 28.465l-0.331 0.853h0.182l0.070-0.194h0.34l0.073 0.194h0.186l-0.339-0.853h-0.182zM19.694 28.981l0.116-0.316 0.116 0.316h-0.232z"></path>
<path fill="" style="" d="M21.818 29.004h0.197v0.11c-0.058 0.046-0.129 0.071-0.202 0.072-0.034 0.002-0.069-0.004-0.1-0.019s-0.059-0.036-0.081-0.063c-0.045-0.065-0.068-0.143-0.063-0.222 0-0.19 0.082-0.285 0.246-0.285 0.043-0.004 0.086 0.007 0.121 0.032s0.061 0.062 0.072 0.104l0.169-0.033c-0.036-0.167-0.156-0.251-0.362-0.251-0.11-0.003-0.216 0.036-0.298 0.11-0.043 0.042-0.076 0.094-0.097 0.15s-0.030 0.117-0.025 0.178c-0.005 0.117 0.034 0.231 0.109 0.32 0.042 0.043 0.092 0.077 0.148 0.098s0.116 0.031 0.176 0.027c0.134 0.004 0.263-0.045 0.362-0.136v-0.336h-0.37v0.144z"></path>
<path fill="" style="" d="M23.959 28.465h-0.173v0.853h0.598v-0.145h-0.425v-0.708z"></path>
<path fill="" style="" d="M25.769 28.465h-0.173v0.853h0.173v-0.853z"></path>
<path fill="" style="" d="M27.539 29.035l-0.349-0.57h-0.167v0.853h0.161v-0.557l0.343 0.557h0.171v-0.853h-0.158v0.57z"></path>
<path fill="" style="" d="M29.14 28.943h0.425v-0.145h-0.425v-0.187h0.457v-0.145h-0.63v0.853h0.648v-0.145h-0.475v-0.231z"></path>
<path fill="" style="" d="M33.020 28.802h-0.336v-0.336h-0.171v0.853h0.171v-0.373h0.336v0.373h0.171v-0.853h-0.171v0.336z"></path>
<path fill="" style="" d="M34.629 28.943h0.426v-0.145h-0.426v-0.187h0.459v-0.145h-0.63v0.853h0.646v-0.145h-0.475v-0.231z"></path>
<path fill="" style="" d="M36.812 28.943c0.148-0.023 0.224-0.102 0.224-0.237 0.004-0.036-0.001-0.073-0.016-0.106s-0.038-0.062-0.068-0.083c-0.077-0.039-0.163-0.056-0.25-0.050h-0.362v0.853h0.171v-0.357h0.034c0.037-0.002 0.073 0.004 0.107 0.019 0.025 0.015 0.046 0.037 0.061 0.062l0.186 0.271h0.205l-0.104-0.167c-0.046-0.082-0.111-0.153-0.189-0.205zM36.64 28.825h-0.127v-0.214h0.135c0.059-0.005 0.118 0.002 0.174 0.020 0.012 0.011 0.022 0.025 0.029 0.040s0.009 0.032 0.009 0.049c-0.001 0.017-0.005 0.033-0.013 0.048s-0.019 0.027-0.032 0.037c-0.056 0.017-0.115 0.024-0.174 0.020z"></path>
<path fill="" style="" d="M38.458 28.943h0.425v-0.145h-0.425v-0.187h0.459v-0.145h-0.631v0.853h0.648v-0.145h-0.475v-0.231z"></path>
</symbol>
<symbol id="icon-company" viewBox="0 0 57 32">
<path fill="" style="" d="M19.417 26.187c0.008 0 0.017 0.002 0.025 0.005s0.015 0.007 0.020 0.013l0.116 0.111c-0.090 0.090-0.202 0.162-0.327 0.211-0.147 0.053-0.305 0.079-0.464 0.076-0.149 0.003-0.298-0.021-0.436-0.071-0.125-0.045-0.237-0.113-0.329-0.2-0.094-0.089-0.166-0.194-0.212-0.308-0.051-0.127-0.076-0.261-0.074-0.396-0.002-0.135 0.025-0.27 0.080-0.397 0.051-0.115 0.127-0.22 0.225-0.308 0.099-0.087 0.218-0.155 0.349-0.201 0.143-0.048 0.296-0.072 0.449-0.071 0.143-0.003 0.285 0.019 0.417 0.064 0.115 0.043 0.221 0.104 0.313 0.178l-0.097 0.119c-0.007 0.008-0.015 0.016-0.025 0.021-0.011 0.007-0.025 0.010-0.039 0.009-0.015-0.001-0.030-0.005-0.042-0.013l-0.052-0.032-0.073-0.040c-0.031-0.015-0.064-0.028-0.097-0.039-0.043-0.013-0.087-0.024-0.132-0.032-0.057-0.009-0.115-0.013-0.173-0.013-0.111-0.001-0.22 0.017-0.323 0.053-0.096 0.034-0.182 0.084-0.253 0.149-0.073 0.069-0.128 0.15-0.164 0.238-0.041 0.101-0.061 0.207-0.060 0.313-0.002 0.108 0.018 0.216 0.060 0.318 0.035 0.087 0.090 0.167 0.161 0.236 0.067 0.064 0.149 0.114 0.241 0.147 0.095 0.034 0.197 0.051 0.3 0.050 0.059 0.001 0.119-0.003 0.177-0.010 0.096-0.010 0.188-0.039 0.269-0.085 0.041-0.023 0.079-0.049 0.115-0.078 0.015-0.012 0.035-0.020 0.055-0.020z"></path>
<path fill="" style="" d="M22.776 25.629c0.002 0.134-0.025 0.267-0.079 0.393-0.047 0.114-0.122 0.218-0.219 0.305s-0.214 0.155-0.344 0.2c-0.285 0.094-0.599 0.094-0.884 0-0.129-0.046-0.245-0.114-0.342-0.201-0.097-0.089-0.172-0.194-0.221-0.308-0.105-0.255-0.105-0.533 0-0.787 0.050-0.115 0.125-0.22 0.221-0.31 0.097-0.084 0.214-0.15 0.342-0.193 0.284-0.096 0.6-0.096 0.884 0 0.129 0.046 0.246 0.114 0.343 0.201 0.096 0.088 0.17 0.191 0.22 0.304 0.054 0.127 0.081 0.261 0.079 0.395zM22.47 25.629c0.002-0.107-0.016-0.214-0.055-0.316-0.033-0.087-0.086-0.168-0.156-0.236-0.068-0.065-0.152-0.116-0.246-0.149-0.207-0.069-0.436-0.069-0.643 0-0.094 0.033-0.178 0.084-0.246 0.149-0.071 0.068-0.125 0.149-0.157 0.236-0.074 0.206-0.074 0.426 0 0.632 0.033 0.087 0.086 0.168 0.157 0.236 0.068 0.065 0.152 0.115 0.246 0.148 0.207 0.067 0.436 0.067 0.643 0 0.094-0.033 0.177-0.083 0.246-0.148 0.070-0.069 0.123-0.149 0.156-0.236 0.039-0.102 0.058-0.209 0.055-0.316z"></path>
<path fill="" style="" d="M25.067 25.96l0.031 0.071c0.012-0.025 0.022-0.048 0.033-0.071 0.011-0.024 0.024-0.047 0.038-0.070l0.743-1.174c0.015-0.020 0.028-0.033 0.042-0.037 0.020-0.005 0.040-0.007 0.061-0.006h0.22v1.909h-0.26v-1.404c0-0.018 0-0.038 0-0.059-0.001-0.022-0.001-0.044 0-0.066l-0.747 1.19c-0.009 0.018-0.025 0.033-0.044 0.043s-0.041 0.016-0.064 0.016h-0.042c-0.023 0-0.045-0.005-0.064-0.016s-0.034-0.026-0.044-0.044l-0.769-1.198c0 0.023 0 0.046 0 0.068s0 0.043 0 0.061v1.404h-0.252v-1.905h0.22c0.021-0.001 0.041 0.001 0.061 0.006 0.018 0.008 0.032 0.021 0.041 0.037l0.759 1.175c0.015 0.022 0.028 0.045 0.038 0.068z"></path>
<path fill="" style="" d="M27.864 25.865v0.715h-0.291v-1.906h0.649c0.122-0.002 0.245 0.012 0.362 0.042 0.094 0.023 0.181 0.064 0.256 0.119 0.065 0.052 0.114 0.116 0.145 0.187 0.034 0.078 0.051 0.161 0.049 0.244 0.001 0.084-0.017 0.167-0.054 0.244-0.035 0.073-0.089 0.138-0.157 0.191-0.075 0.057-0.162 0.1-0.257 0.126-0.113 0.031-0.232 0.046-0.35 0.044l-0.352-0.005zM27.864 25.66h0.352c0.076 0.001 0.153-0.009 0.225-0.029 0.060-0.018 0.116-0.046 0.163-0.082 0.044-0.035 0.078-0.078 0.099-0.126 0.024-0.051 0.036-0.105 0.035-0.16 0.003-0.053-0.007-0.106-0.029-0.155s-0.057-0.094-0.102-0.13c-0.111-0.075-0.251-0.112-0.391-0.102h-0.352v0.786z"></path>
<path fill="" style="" d="M31.772 26.583h-0.23c-0.023 0.001-0.046-0.006-0.064-0.018-0.016-0.012-0.029-0.027-0.038-0.044l-0.198-0.461h-0.993l-0.205 0.461c-0.008 0.017-0.020 0.032-0.036 0.043-0.018 0.013-0.042 0.020-0.065 0.019h-0.23l0.872-1.909h0.302l0.884 1.909zM30.333 25.874h0.82l-0.346-0.777c-0.026-0.058-0.048-0.118-0.065-0.179l-0.033 0.1c-0.010 0.030-0.022 0.058-0.032 0.081l-0.343 0.776z"></path>
<path fill="" style="" d="M33.029 24.682c0.017 0.008 0.032 0.020 0.044 0.034l1.272 1.439c0-0.023 0-0.046 0-0.067s0-0.043 0-0.063v-1.352h0.26v1.909h-0.145c-0.021 0.001-0.041-0.003-0.060-0.011-0.018-0.009-0.034-0.021-0.047-0.035l-1.271-1.438c0.001 0.022 0.001 0.044 0 0.066 0 0.021 0 0.040 0 0.058v1.361h-0.26v-1.909h0.154c0.018-0 0.036 0.003 0.052 0.009z"></path>
<path fill="" style="" d="M36.748 25.823v0.758h-0.291v-0.758l-0.804-1.15h0.26c0.022-0.001 0.045 0.005 0.063 0.016 0.016 0.012 0.029 0.027 0.039 0.043l0.503 0.742c0.020 0.032 0.038 0.061 0.052 0.088s0.026 0.054 0.036 0.081l0.038-0.082c0.014-0.030 0.031-0.059 0.049-0.087l0.496-0.747c0.010-0.015 0.023-0.028 0.038-0.040 0.017-0.013 0.040-0.020 0.063-0.019h0.263l-0.806 1.155z"></path>
<path fill="" style="" d="M24.923 21.47c0.127 0.014 0.254 0.025 0.384 0.035 1.962-0.763 3.622-2.011 4.772-3.588s1.74-3.415 1.695-5.282l-2.162-1.879c0.44 1.988 0.234 4.043-0.594 5.935s-2.246 3.547-4.094 4.779z"></path>
<path fill="" style="" d="M24.151 21.383l0.058 0.010c1.975-1.228 3.481-2.942 4.323-4.921s0.981-4.133 0.399-6.181l-3.080-2.676c1.246 2.2 1.747 4.661 1.446 7.098s-1.393 4.75-3.147 6.67z"></path>
<path fill="" style="" d="M34.596 14.841c-0.523 2.052-1.794 3.902-3.624 5.276-0.534 0.404-1.111 0.763-1.722 1.074 1.49-0.38 2.859-1.053 4.003-1.966s2.030-2.042 2.592-3.3l-1.249-1.084z"></path>
<path fill="" style="" d="M34.106 14.539l-1.778-1.545c-0.034 1.762-0.61 3.483-1.669 4.986s-2.562 2.731-4.352 3.559h0.009c0.399-0 0.798-0.021 1.194-0.062 1.673-0.593 3.151-1.537 4.303-2.748s1.94-2.65 2.295-4.189z"></path>
<path fill="" style="" d="M24.409 6.486l-2.122-1.846c-1.897 0.637-3.528 1.756-4.68 3.212s-1.772 3.179-1.778 4.946v0c0.007 1.952 0.763 3.846 2.149 5.383s3.322 2.628 5.501 3.101c1.946-2.060 3.085-4.605 3.252-7.266s-0.647-5.299-2.323-7.53z"></path>
<path fill="" style="" d="M39.008 14.255c-0.008-2.316-1.070-4.535-2.955-6.173s-4.439-2.561-7.105-2.567c-1.232-0.001-2.453 0.196-3.602 0.582l12.99 11.286c0.445-0.998 0.673-2.058 0.672-3.128z"></path>
</symbol>
<symbol id="icon-foster-peters" viewBox="0 0 57 32">
<path fill="" style="" d="M12.878 11.255h-0.002c-1.279 0-2.316 0.921-2.316 2.058v0.001c0 1.137 1.037 2.058 2.316 2.058h0.002c1.279 0 2.316-0.921 2.316-2.058v-0.001c0-1.137-1.037-2.058-2.316-2.058z"></path>
<path fill="" style="" d="M29.971 10.597c-0.004-1.579-0.711-3.092-1.967-4.208s-2.958-1.745-4.735-1.749v0c-1.777 0.003-3.48 0.631-4.737 1.748s-1.964 2.63-1.968 4.209v8.706c0 0 13.405-1.327 13.406-8.704v-0.001z"></path>
<path fill="" style="" d="M5.867 22.16c0.003 1.098 0.496 2.151 1.369 2.928s2.058 1.215 3.294 1.218c1.236-0.003 2.42-0.441 3.294-1.218s1.366-1.829 1.37-2.927v-6.057c0 0-9.327 0.924-9.327 6.056zM10.53 23.245c-0.242 0-0.478-0.064-0.678-0.183s-0.357-0.289-0.45-0.487c-0.092-0.198-0.117-0.417-0.069-0.627s0.163-0.404 0.334-0.556c0.171-0.152 0.388-0.255 0.625-0.297s0.482-0.020 0.706 0.062c0.223 0.082 0.414 0.221 0.548 0.4s0.206 0.388 0.206 0.603c0.001 0.143-0.031 0.284-0.092 0.417s-0.151 0.252-0.264 0.353c-0.114 0.101-0.248 0.182-0.397 0.236s-0.308 0.083-0.468 0.083v-0.004z"></path>
<path fill="" style="" d="M19.956 22.647h-0.9v0.93h-0.469v-2.275h1.481v0.38h-1.012v0.588h0.9v0.378zM22.209 22.491c0 0.224-0.040 0.42-0.119 0.589s-0.193 0.299-0.341 0.391c-0.147 0.092-0.316 0.137-0.506 0.137-0.189 0-0.357-0.045-0.505-0.136s-0.262-0.22-0.344-0.387c-0.081-0.169-0.122-0.363-0.123-0.581v-0.112c0-0.224 0.040-0.421 0.12-0.591 0.081-0.171 0.195-0.302 0.342-0.392 0.148-0.092 0.317-0.137 0.506-0.137s0.358 0.046 0.505 0.137c0.148 0.091 0.262 0.221 0.342 0.392 0.081 0.17 0.122 0.366 0.122 0.589v0.102zM21.734 22.388c0-0.238-0.043-0.42-0.128-0.544s-0.207-0.186-0.366-0.186c-0.157 0-0.279 0.061-0.364 0.184-0.085 0.122-0.129 0.301-0.13 0.538v0.111c0 0.232 0.043 0.412 0.128 0.541s0.208 0.192 0.369 0.192c0.157 0 0.278-0.061 0.363-0.184 0.084-0.124 0.127-0.304 0.128-0.541v-0.111zM23.73 22.98c0-0.089-0.031-0.156-0.094-0.203-0.063-0.048-0.175-0.098-0.337-0.15-0.163-0.053-0.291-0.105-0.386-0.156-0.258-0.14-0.387-0.328-0.387-0.564 0-0.123 0.034-0.232 0.103-0.328 0.070-0.097 0.169-0.172 0.298-0.227 0.13-0.054 0.276-0.081 0.438-0.081 0.163 0 0.307 0.030 0.434 0.089 0.127 0.058 0.226 0.141 0.295 0.248s0.106 0.229 0.106 0.366h-0.469c0-0.104-0.033-0.185-0.098-0.242s-0.158-0.087-0.277-0.087c-0.115 0-0.204 0.024-0.267 0.073-0.064 0.048-0.095 0.111-0.095 0.191 0 0.074 0.037 0.136 0.111 0.186 0.075 0.050 0.185 0.097 0.33 0.141 0.267 0.080 0.461 0.18 0.583 0.298s0.183 0.267 0.183 0.444c0 0.197-0.075 0.352-0.223 0.464-0.149 0.111-0.349 0.167-0.602 0.167-0.175 0-0.334-0.032-0.478-0.095-0.144-0.065-0.254-0.153-0.33-0.264s-0.113-0.241-0.113-0.388h0.47c0 0.251 0.15 0.377 0.45 0.377 0.111 0 0.198-0.022 0.261-0.067 0.063-0.046 0.094-0.109 0.094-0.191zM26.231 21.682h-0.697v1.895h-0.469v-1.895h-0.687v-0.38h1.853v0.38zM27.869 22.591h-0.9v0.609h1.056v0.377h-1.525v-2.275h1.522v0.38h-1.053v0.542h0.9v0.367zM29.142 22.744h-0.373v0.833h-0.469v-2.275h0.845c0.269 0 0.476 0.060 0.622 0.18s0.219 0.289 0.219 0.508c0 0.155-0.034 0.285-0.102 0.389-0.067 0.103-0.168 0.185-0.305 0.247l0.492 0.93v0.022h-0.503l-0.427-0.833zM28.769 22.365h0.378c0.118 0 0.209-0.030 0.273-0.089 0.065-0.060 0.097-0.143 0.097-0.248 0-0.107-0.031-0.192-0.092-0.253-0.060-0.061-0.154-0.092-0.28-0.092h-0.377v0.683zM31.609 22.775v0.802h-0.469v-2.275h0.887c0.171 0 0.321 0.031 0.45 0.094s0.23 0.152 0.3 0.267c0.070 0.115 0.105 0.245 0.105 0.392 0 0.223-0.077 0.399-0.23 0.528-0.152 0.128-0.363 0.192-0.633 0.192h-0.411zM31.609 22.396h0.419c0.124 0 0.218-0.029 0.283-0.088 0.066-0.058 0.098-0.142 0.098-0.25 0-0.111-0.033-0.202-0.098-0.27s-0.156-0.104-0.272-0.106h-0.43v0.714zM34.575 22.591h-0.9v0.609h1.056v0.377h-1.525v-2.275h1.522v0.38h-1.053v0.542h0.9v0.367zM36.75 21.682h-0.697v1.895h-0.469v-1.895h-0.688v-0.38h1.853v0.38zM38.387 22.591h-0.9v0.609h1.056v0.377h-1.525v-2.275h1.522v0.38h-1.053v0.542h0.9v0.367zM39.661 22.744h-0.373v0.833h-0.469v-2.275h0.845c0.269 0 0.476 0.060 0.622 0.18s0.219 0.289 0.219 0.508c0 0.155-0.034 0.285-0.102 0.389-0.067 0.103-0.168 0.185-0.305 0.247l0.492 0.93v0.022h-0.503l-0.427-0.833zM39.287 22.365h0.378c0.118 0 0.209-0.030 0.273-0.089 0.065-0.060 0.097-0.143 0.097-0.248 0-0.107-0.031-0.192-0.092-0.253-0.060-0.061-0.154-0.092-0.28-0.092h-0.377v0.683zM42.042 22.98c0-0.089-0.031-0.156-0.094-0.203-0.063-0.048-0.175-0.098-0.337-0.15-0.163-0.053-0.291-0.105-0.386-0.156-0.258-0.14-0.388-0.328-0.388-0.564 0-0.123 0.034-0.232 0.103-0.328 0.070-0.097 0.169-0.172 0.298-0.227 0.13-0.054 0.276-0.081 0.438-0.081 0.163 0 0.307 0.030 0.434 0.089 0.127 0.058 0.226 0.141 0.295 0.248 0.071 0.107 0.106 0.229 0.106 0.366h-0.469c0-0.104-0.033-0.185-0.098-0.242s-0.158-0.087-0.277-0.087c-0.115 0-0.204 0.024-0.267 0.073-0.064 0.048-0.095 0.111-0.095 0.191 0 0.074 0.037 0.136 0.111 0.186 0.075 0.050 0.185 0.097 0.33 0.141 0.267 0.080 0.461 0.18 0.583 0.298s0.183 0.267 0.183 0.444c0 0.197-0.074 0.352-0.223 0.464-0.149 0.111-0.349 0.167-0.602 0.167-0.175 0-0.334-0.032-0.478-0.095-0.144-0.065-0.254-0.153-0.33-0.264-0.075-0.111-0.112-0.241-0.112-0.388h0.47c0 0.251 0.15 0.377 0.45 0.377 0.111 0 0.198-0.022 0.261-0.067 0.063-0.046 0.094-0.109 0.094-0.191z"></path>
</symbol>
<symbol id="icon-brand" viewBox="0 0 43 32">
<path fill="" style="" d="M3.239 26.373c0.166 0.188 0.254 0.424 0.25 0.665 0.008 0.158-0.022 0.315-0.089 0.46s-0.169 0.275-0.298 0.38c-0.322 0.223-0.722 0.332-1.125 0.307h-1.977v-4.215h1.937c0.382-0.023 0.761 0.076 1.073 0.28 0.125 0.096 0.224 0.217 0.289 0.354s0.095 0.286 0.086 0.435c0.011 0.233-0.068 0.461-0.225 0.645-0.15 0.168-0.358 0.284-0.589 0.329 0.262 0.044 0.499 0.172 0.668 0.36zM0.92 25.737h0.828c0.188 0.013 0.375-0.037 0.526-0.14 0.062-0.052 0.111-0.116 0.141-0.187s0.043-0.148 0.036-0.225c0.006-0.076-0.007-0.153-0.037-0.224s-0.078-0.135-0.138-0.188c-0.156-0.106-0.349-0.156-0.542-0.142h-0.814v1.106zM2.355 27.353c0.066-0.053 0.119-0.119 0.153-0.193s0.049-0.155 0.043-0.235c0.005-0.081-0.010-0.163-0.045-0.238s-0.088-0.142-0.155-0.195c-0.162-0.11-0.361-0.164-0.562-0.152h-0.868v1.159h0.879c0.198 0.011 0.394-0.041 0.556-0.146z"></path>
<path fill="" style="" d="M7.197 28.185l-1.077-1.647h-0.405v1.647h-0.927v-4.215h1.754c0.442-0.028 0.879 0.1 1.221 0.358 0.245 0.229 0.393 0.53 0.417 0.85s-0.078 0.637-0.287 0.894c-0.216 0.227-0.512 0.378-0.837 0.428l1.147 1.684h-1.008zM5.715 25.963h0.758c0.526 0 0.789-0.213 0.789-0.638 0.005-0.087-0.009-0.174-0.042-0.255s-0.085-0.156-0.151-0.218c-0.166-0.127-0.38-0.188-0.596-0.171h-0.767l0.009 1.283z"></path>
<path fill="" style="" d="M12.262 27.337h-1.847l-0.326 0.848h-0.972l1.696-4.168h1.050l1.689 4.168h-0.972l-0.319-0.848zM12.015 26.698l-0.675-1.779-0.675 1.779h1.349z"></path>
<path fill="" style="" d="M18.602 28.185h-0.92l-2.062-2.867v2.867h-0.918v-4.215h0.918l2.062 2.883v-2.883h0.92v4.215z"></path>
<path fill="" style="" d="M23.852 27.176c-0.19 0.318-0.48 0.577-0.832 0.743-0.4 0.185-0.845 0.276-1.293 0.266h-1.637v-4.215h1.637c0.448-0.011 0.891 0.078 1.293 0.259 0.352 0.163 0.642 0.419 0.832 0.735 0.189 0.343 0.288 0.722 0.288 1.106s-0.099 0.763-0.288 1.106zM22.799 27.075c0.263-0.28 0.407-0.637 0.407-1.006s-0.144-0.726-0.407-1.006c-0.317-0.254-0.731-0.382-1.152-0.358h-0.639v2.729h0.639c0.42 0.024 0.834-0.105 1.152-0.358z"></path>
<path fill="" style="" d="M12.838 0.522c0 0 11.873 4.104 11.621 10.043v10.045c0 0-11.864-4.106-11.617-10.045l-0.005-10.043z"></path>
<path fill="" style="" d="M35.037 18.259c2.242-1.413 4.836-2.288 7.544-2.545v-3.145c-3.12 1.101-5.766 3.097-7.544 5.69z"></path>
<path fill="" style="" d="M33.69 19.206c1.835-3.384 5.017-5.995 8.891-7.296v-9.061c0 0-16.909 5.846-16.551 14.304v14.302c0 0 0.753-0.262 1.939-0.752 0-0.457 0-0.918 0.054-1.382 0.35-3.926 2.389-7.565 5.668-10.115z"></path>
<path fill="" style="" d="M32.081 24.52c0.089-0.992 0.287-1.973 0.592-2.928-2.042 2.203-3.278 4.936-3.536 7.815-0.025 0.272-0.038 0.544-0.045 0.824 0.96-0.422 2.078-0.949 3.252-1.569-0.3-1.362-0.388-2.756-0.263-4.141z"></path>
<path fill="" style="" d="M32.754 24.571c-0.113 1.253-0.042 2.514 0.209 3.75 4.62-2.531 9.811-6.442 9.611-11.168v-0.412c-3.301 0.338-6.389 1.659-8.79 3.76-0.562 1.302-0.909 2.674-1.030 4.069z"></path>
</symbol>
<symbol id="icon-company-box" viewBox="0 0 67 32">
<path fill="" style="" d="M33.724 15.224c-0.315-0.419-0.466-0.915-0.43-1.414v-2.050c0-0.628 0.142-1.106 0.428-1.433s0.775-0.489 1.469-0.488c0.652 0 1.115 0.139 1.389 0.417 0.299 0.355 0.444 0.789 0.411 1.226v0.482h-1.167v-0.488c0.004-0.16-0.007-0.319-0.034-0.478-0.017-0.108-0.076-0.208-0.167-0.284-0.12-0.081-0.271-0.121-0.423-0.111-0.16-0.010-0.318 0.031-0.444 0.117-0.102 0.084-0.169 0.193-0.193 0.313-0.033 0.167-0.049 0.337-0.046 0.507v2.488c-0.018 0.24 0.033 0.48 0.15 0.699 0.058 0.074 0.139 0.132 0.233 0.169s0.198 0.050 0.301 0.039c0.149 0.011 0.298-0.030 0.413-0.113 0.095-0.082 0.156-0.188 0.174-0.302 0.027-0.165 0.039-0.332 0.036-0.498v-0.505h1.167v0.461c0.033 0.456-0.109 0.909-0.403 1.289-0.268 0.305-0.725 0.457-1.396 0.457s-1.179-0.163-1.466-0.501z"></path>
<path fill="" style="" d="M38.583 15.245c-0.295-0.319-0.442-0.784-0.442-1.4v-2.157c0-0.609 0.147-1.070 0.442-1.383s0.788-0.469 1.478-0.467c0.686 0 1.177 0.156 1.471 0.467 0.295 0.313 0.444 0.774 0.444 1.383v2.157c0 0.609-0.15 1.076-0.449 1.397s-0.788 0.482-1.466 0.482c-0.679 0-1.181-0.163-1.478-0.48zM40.605 14.727c0.106-0.2 0.154-0.419 0.14-0.638v-2.641c0.014-0.215-0.034-0.43-0.138-0.626-0.059-0.075-0.142-0.135-0.238-0.172s-0.203-0.050-0.308-0.037c-0.105-0.013-0.212 0-0.308 0.037s-0.18 0.096-0.24 0.172c-0.106 0.195-0.154 0.41-0.14 0.626v2.653c-0.015 0.219 0.033 0.439 0.14 0.638 0.068 0.067 0.152 0.121 0.246 0.158s0.196 0.056 0.3 0.056c0.103 0 0.206-0.019 0.3-0.056s0.178-0.091 0.246-0.158v-0.012z"></path>
<path fill="" style="" d="M43.38 9.901h1.256l0.945 3.979 0.966-3.979h1.222l0.123 5.743h-0.904l-0.097-3.992-0.932 3.992h-0.725l-0.966-4.006-0.089 4.006h-0.913l0.114-5.743z"></path>
<path fill="" style="" d="M49.301 9.901h1.957c1.127 0 1.691 0.544 1.691 1.631 0 1.041-0.593 1.561-1.78 1.56h-0.667v2.553h-1.208l0.007-5.743zM50.973 12.356c0.119 0.013 0.24 0.004 0.355-0.028s0.22-0.084 0.309-0.154c0.139-0.194 0.2-0.422 0.174-0.649 0.006-0.175-0.013-0.35-0.058-0.521-0.017-0.057-0.047-0.111-0.089-0.158s-0.093-0.086-0.153-0.116c-0.168-0.069-0.353-0.101-0.539-0.092h-0.469v1.716h0.469z"></path>
<path fill="" style="" d="M54.691 9.901h1.297l1.331 5.743h-1.126l-0.263-1.324h-1.157l-0.271 1.324h-1.143l1.331-5.743zM55.8 13.655l-0.452-2.411-0.452 2.411h0.903z"></path>
<path fill="" style="" d="M58.395 9.901h0.846l1.619 3.276v-3.276h1.003v5.743h-0.804l-1.628-3.42v3.42h-1.036l0.002-5.743z"></path>
<path fill="" style="" d="M64.209 13.455l-1.346-3.546h1.133l0.821 2.277 0.771-2.277h1.109l-1.329 3.546v2.19h-1.16v-2.19z"></path>
<path fill="" style="" d="M35.589 18.156v0.3h-0.986v2.334h-0.413v-2.334h-0.99v-0.3h2.389z"></path>
<path fill="" style="" d="M38.679 20.79h-0.319c-0.032 0.002-0.064-0.007-0.089-0.025-0.024-0.015-0.043-0.036-0.053-0.060l-0.285-0.626h-1.367l-0.285 0.626c-0.008 0.026-0.023 0.050-0.044 0.071-0.025 0.017-0.057 0.026-0.089 0.025h-0.319l1.208-2.634h0.42l1.222 2.624zM36.679 19.812h1.14l-0.483-1.072c-0.036-0.081-0.066-0.164-0.089-0.248-0.017 0.050-0.031 0.098-0.046 0.14l-0.044 0.11-0.478 1.070z"></path>
<path fill="" style="" d="M40.762 20.532c0.076 0.003 0.151 0.003 0.227 0 0.065-0.006 0.13-0.016 0.193-0.031 0.059-0.013 0.117-0.029 0.174-0.048 0.053-0.019 0.106-0.042 0.162-0.065v-0.592h-0.483c-0.012 0.001-0.024-0.001-0.035-0.005s-0.021-0.009-0.030-0.016c-0.008-0.006-0.014-0.013-0.018-0.022s-0.006-0.017-0.006-0.026v-0.202h0.937v1.010c-0.077 0.047-0.157 0.089-0.242 0.125-0.086 0.037-0.176 0.067-0.268 0.090-0.099 0.025-0.2 0.043-0.302 0.054-0.117 0.011-0.235 0.017-0.353 0.017-0.208 0.002-0.415-0.032-0.609-0.098-0.181-0.063-0.345-0.156-0.483-0.275-0.134-0.12-0.24-0.262-0.312-0.417-0.076-0.175-0.114-0.36-0.111-0.547-0.003-0.188 0.034-0.374 0.109-0.551 0.069-0.156 0.176-0.298 0.312-0.417 0.138-0.119 0.302-0.212 0.483-0.273 0.207-0.067 0.426-0.1 0.647-0.098 0.112-0 0.225 0.008 0.336 0.023 0.098 0.014 0.195 0.036 0.288 0.067 0.084 0.027 0.165 0.062 0.242 0.104 0.074 0.041 0.144 0.087 0.21 0.138l-0.116 0.163c-0.009 0.015-0.023 0.027-0.039 0.036s-0.036 0.014-0.055 0.014c-0.027-0.001-0.053-0.008-0.075-0.021-0.036-0.017-0.075-0.038-0.118-0.063-0.051-0.028-0.106-0.052-0.162-0.071-0.072-0.025-0.146-0.044-0.222-0.058-0.101-0.016-0.204-0.024-0.307-0.023-0.159-0.002-0.318 0.023-0.466 0.073-0.134 0.047-0.256 0.118-0.355 0.209-0.1 0.095-0.177 0.206-0.225 0.328-0.108 0.285-0.108 0.593 0 0.878 0.053 0.124 0.135 0.237 0.242 0.332 0.099 0.090 0.219 0.162 0.353 0.209 0.154 0.046 0.316 0.063 0.478 0.052z"></path>
<path fill="" style="" d="M44.612 20.49h1.319v0.3h-1.722v-2.634h0.413l-0.010 2.334z"></path>
<path fill="" style="" d="M47.304 20.79h-0.413v-2.634h0.413v2.634z"></path>
<path fill="" style="" d="M48.84 18.168c0.025 0.012 0.046 0.028 0.063 0.048l1.766 1.986c-0.002-0.031-0.002-0.063 0-0.094 0-0.029 0-0.058 0-0.085v-1.877h0.36v2.645h-0.208c-0.031 0.002-0.062-0.003-0.089-0.015-0.025-0.013-0.047-0.030-0.065-0.050l-1.764-1.984c0 0.031 0 0.061 0 0.090s0 0.056 0 0.081v1.877h-0.345v-2.634h0.215c0.023 0 0.046 0.004 0.068 0.012z"></path>
<path fill="" style="" d="M54.070 18.156v0.29h-1.464v0.87h1.186v0.279h-1.186v0.899h1.464v0.29h-1.889v-2.628h1.889z"></path>
<path fill="" style="" d="M10.782 1.888l18.343 4.497v15.757l-18.343-4.494v-15.759zM9.605 0.545v17.867l20.694 5.074v-17.865l-20.694-5.076z"></path>
<path fill="" style="" d="M20.696 31.781l-20.696-5.079v-17.866l20.696 5.076v17.868z"></path>
<path fill="" style="" d="M9.948 1.686l18.104 4.44-7.699 6.649-18.106-4.442 7.702-6.647zM9.605 0.545l-9.605 8.292 20.696 5.076 9.603-8.292-20.694-5.076z"></path>
<path fill="" style="" d="M21.861 30.776l8.438-7.287-8.438-2.071v9.358z"></path>
</symbol>
</defs>
</svg>
